<svg width="1087" height="294" viewBox="0 0 1087 294" fill="none" xmlns="http://www.w3.org/2000/svg">
<rect width="1087" height="294" rx="22.9648" fill=""/>
<rect x="63.4609" y="66.3379" width="192.074" height="191.326" rx="30" fill="white"/>
<rect x="31" y="34.002" width="257" height="256" rx="30" fill="white"/>
<g filter="url(#filter0_d_759_4541)">
<rect x="63.3359" y="66.3379" width="161.684" height="161.684" fill="black"/>
</g>
<path d="M388.655 212C378.43 212 370.437 210.56 364.676 207.679C358.915 204.799 354.883 200.479 352.578 194.718C350.274 188.957 349.122 181.828 349.122 173.331V125.157C349.122 111.331 352.218 101.178 358.411 94.6972C364.604 88.0723 374.685 84.7599 388.655 84.7599H453.679C463.616 84.7599 471.177 85.336 476.362 86.4881C481.691 87.4963 484.355 88.5764 484.355 89.7285L480.034 107.659C477.586 107.227 470.313 106.795 458.216 106.363C446.262 105.787 428.836 105.499 405.937 105.499H394.92C383.398 105.499 377.638 110.611 377.638 120.836V175.923C377.638 180.82 378.862 184.637 381.31 187.373C383.902 189.965 388.439 191.261 394.92 191.261H403.777C427.684 191.261 446.19 191.045 459.296 190.613C472.546 190.037 480.755 189.461 483.923 188.885L492.78 203.143C492.78 203.863 491.556 204.943 489.108 206.383C486.803 207.823 482.483 209.12 476.146 210.272C469.809 211.424 460.664 212 448.71 212H388.655ZM546.33 214.16C533.224 214.16 524.079 210.632 518.894 203.575C513.709 196.518 511.117 187.157 511.117 175.491V84.9759H539.633V176.355C539.633 183.124 541.289 187.661 544.601 189.965C547.914 192.27 552.018 193.422 556.915 193.422H602.713C607.321 193.422 611.354 192.27 614.81 189.965C618.267 187.517 619.995 182.98 619.995 176.355V84.9759H648.51V175.491C648.51 183.268 647.43 190.037 645.27 195.798C643.11 201.559 639.509 206.095 634.469 209.408C629.428 212.576 622.443 214.16 613.514 214.16H546.33ZM679.753 212V84.7599H773.725C787.263 84.7599 797.128 87.4963 803.321 92.969C809.514 98.2976 812.61 104.778 812.61 112.411V118.892C812.61 124.797 811.314 129.694 808.722 133.582C806.273 137.327 803.609 139.991 800.729 141.575C807.065 143.591 812.106 147.12 815.851 152.16C819.595 157.057 821.467 163.538 821.467 171.603V175.491C821.467 179.812 820.963 184.132 819.955 188.453C818.947 192.774 817.003 196.734 814.122 200.335C811.386 203.791 807.426 206.599 802.241 208.76C797.2 210.92 790.575 212 782.366 212H679.753ZM708.269 135.742H769.189C774.229 135.886 777.974 134.662 780.422 132.07C782.87 129.334 784.095 125.949 784.095 121.917V119.756C784.095 116.444 782.942 113.276 780.638 110.251C778.334 107.083 774.013 105.499 767.676 105.499H708.269V135.742ZM708.269 191.261H776.318C781.79 191.261 785.895 189.893 788.631 187.157C791.512 184.421 792.952 180.676 792.952 175.923V172.035C792.952 167.57 791.295 163.97 787.983 161.234C784.671 158.353 779.198 156.913 771.565 156.913H708.269V191.261ZM851.689 212V84.9759H986.058V105.715H880.205V135.526H960.999V156.913H880.205V191.261H986.922L995.563 209.624C995.563 210.2 993.619 210.776 989.731 211.352C985.842 211.784 979.145 212 969.64 212H851.689Z" fill="white"/>
<defs>
<filter id="filter0_d_759_4541" x="63.3359" y="66.3379" width="194.024" height="194.02" filterUnits="userSpaceOnUse" color-interpolation-filters="sRGB">
<feFlood flood-opacity="0" result="BackgroundImageFix"/>
<feColorMatrix in="SourceAlpha" type="matrix" values="0 0 0 0 0 0 0 0 0 0 0 0 0 0 0 0 0 0 127 0" result="hardAlpha"/>
<feOffset dx="26.9474" dy="26.9474"/>
<feGaussianBlur stdDeviation="2.69474"/>
<feComposite in2="hardAlpha" operator="out"/>
<feColorMatrix type="matrix" values="0 0 0 0 0 0 0 0 0 0 0 0 0 0 0 0 0 0 0.25 0"/>
<feBlend mode="normal" in2="BackgroundImageFix" result="effect1_dropShadow_759_4541"/>
<feBlend mode="normal" in="SourceGraphic" in2="effect1_dropShadow_759_4541" result="shape"/>
</filter>
</defs>
</svg>
