<svg width="753" height="256" viewBox="0 0 753 256" fill="none" xmlns="http://www.w3.org/2000/svg">
<rect width="753" height="256" rx="20" fill="white"/>
<rect x="32.4609" y="32.3359" width="192.074" height="191.326" rx="30" fill="white"/>
<rect width="257" height="256" rx="30" fill="white"/>
<g filter="url(#filter0_d_759_4541)">
<rect x="32.3359" y="32.3359" width="161.684" height="161.684" fill="black"/>
</g>
<path d="M337.384 166C331.325 166 326.589 165.147 323.176 163.44C319.763 161.733 317.373 159.173 316.008 155.76C314.643 152.347 313.96 148.123 313.96 143.088V114.544C313.96 106.352 315.795 100.336 319.464 96.496C323.133 92.5707 329.107 90.608 337.384 90.608H375.912C381.8 90.608 386.28 90.9493 389.352 91.632C392.509 92.2293 394.088 92.8693 394.088 93.552L391.528 104.176C390.077 103.92 385.768 103.664 378.6 103.408C371.517 103.067 361.192 102.896 347.624 102.896H341.096C334.269 102.896 330.856 105.925 330.856 111.984V144.624C330.856 147.525 331.581 149.787 333.032 151.408C334.568 152.944 337.256 153.712 341.096 153.712H346.344C360.509 153.712 371.475 153.584 379.24 153.328C387.091 152.987 391.955 152.645 393.832 152.304L399.08 160.752C399.08 161.179 398.355 161.819 396.904 162.672C395.539 163.525 392.979 164.293 389.224 164.976C385.469 165.659 380.051 166 372.968 166H337.384ZM430.809 167.28C423.044 167.28 417.625 165.189 414.553 161.008C411.481 156.827 409.945 151.28 409.945 144.368V90.736H426.841V144.88C426.841 148.891 427.822 151.579 429.785 152.944C431.748 154.309 434.18 154.992 437.081 154.992H464.217C466.948 154.992 469.337 154.309 471.385 152.944C473.433 151.493 474.457 148.805 474.457 144.88V90.736H491.353V144.368C491.353 148.976 490.713 152.987 489.433 156.4C488.153 159.813 486.02 162.501 483.033 164.464C480.046 166.341 475.908 167.28 470.617 167.28H430.809ZM509.865 166V90.608H565.545C573.566 90.608 579.412 92.2293 583.081 95.472C586.75 98.6293 588.585 102.469 588.585 106.992V110.832C588.585 114.331 587.817 117.232 586.281 119.536C584.83 121.755 583.252 123.333 581.545 124.272C585.3 125.467 588.286 127.557 590.505 130.544C592.724 133.445 593.833 137.285 593.833 142.064V144.368C593.833 146.928 593.534 149.488 592.937 152.048C592.34 154.608 591.188 156.955 589.481 159.088C587.86 161.136 585.513 162.8 582.441 164.08C579.454 165.36 575.529 166 570.665 166H509.865ZM526.761 120.816H562.857C565.844 120.901 568.062 120.176 569.513 118.64C570.964 117.019 571.689 115.013 571.689 112.624V111.344C571.689 109.381 571.006 107.504 569.641 105.712C568.276 103.835 565.716 102.896 561.961 102.896H526.761V120.816ZM526.761 153.712H567.081C570.324 153.712 572.756 152.901 574.377 151.28C576.084 149.659 576.937 147.44 576.937 144.624V142.32C576.937 139.675 575.956 137.541 573.993 135.92C572.03 134.213 568.788 133.36 564.265 133.36H526.761V153.712ZM611.74 166V90.736H691.356V103.024H628.636V120.688H676.508V133.36H628.636V153.712H691.868L696.988 164.592C696.988 164.933 695.836 165.275 693.532 165.616C691.228 165.872 687.26 166 681.628 166H611.74Z" fill="black"/>
<defs>
<filter id="filter0_d_759_4541" x="32.3359" y="32.3359" width="194.024" height="194.02" filterUnits="userSpaceOnUse" color-interpolation-filters="sRGB">
<feFlood flood-opacity="0" result="BackgroundImageFix"/>
<feColorMatrix in="SourceAlpha" type="matrix" values="0 0 0 0 0 0 0 0 0 0 0 0 0 0 0 0 0 0 127 0" result="hardAlpha"/>
<feOffset dx="26.9474" dy="26.9474"/>
<feGaussianBlur stdDeviation="2.69474"/>
<feComposite in2="hardAlpha" operator="out"/>
<feColorMatrix type="matrix" values="0 0 0 0 0 0 0 0 0 0 0 0 0 0 0 0 0 0 0.25 0"/>
<feBlend mode="normal" in2="BackgroundImageFix" result="effect1_dropShadow_759_4541"/>
<feBlend mode="normal" in="SourceGraphic" in2="effect1_dropShadow_759_4541" result="shape"/>
</filter>
</defs>
</svg>
