<svg width="1058" height="259" viewBox="0 0 1058 259" fill="none" xmlns="http://www.w3.org/2000/svg">
<rect x="32.4609" y="35.3359" width="192.074" height="191.326" rx="30" fill="white"/>
<rect y="3" width="257" height="256" rx="30" fill="white"/>
<g filter="url(#filter0_d_759_4541)">
<rect x="32.3359" y="35.3359" width="161.684" height="161.684" fill="black"/>
</g>
<path d="M446.655 194C436.43 194 428.437 192.56 422.676 189.679C416.915 186.799 412.883 182.479 410.578 176.718C408.274 170.957 407.122 163.828 407.122 155.331V107.157C407.122 93.3313 410.218 83.178 416.411 76.6972C422.604 70.0723 432.685 66.7599 446.655 66.7599H511.679C521.616 66.7599 529.177 67.336 534.362 68.4881C539.691 69.4963 542.355 70.5764 542.355 71.7285L538.034 89.6588C535.586 89.2268 528.313 88.7947 516.216 88.3626C504.262 87.7866 486.836 87.4985 463.937 87.4985H452.92C441.398 87.4985 435.638 92.6112 435.638 102.836V157.923C435.638 162.82 436.862 166.637 439.31 169.373C441.902 171.965 446.439 173.261 452.92 173.261H461.777C485.684 173.261 504.19 173.045 517.296 172.613C530.546 172.037 538.755 171.461 541.923 170.885L550.78 185.143C550.78 185.863 549.556 186.943 547.108 188.383C544.803 189.823 540.483 191.12 534.146 192.272C527.809 193.424 518.664 194 506.71 194H446.655ZM604.33 196.16C591.224 196.16 582.079 192.632 576.894 185.575C571.709 178.518 569.117 169.157 569.117 157.491V66.9759H597.633V158.355C597.633 165.124 599.289 169.661 602.601 171.965C605.914 174.27 610.018 175.422 614.915 175.422H660.713C665.321 175.422 669.354 174.27 672.81 171.965C676.267 169.517 677.995 164.98 677.995 158.355V66.9759H706.51V157.491C706.51 165.268 705.43 172.037 703.27 177.798C701.11 183.559 697.509 188.095 692.469 191.408C687.428 194.576 680.443 196.16 671.514 196.16H604.33ZM737.753 194V66.7599H831.725C845.263 66.7599 855.128 69.4963 861.321 74.969C867.514 80.2976 870.61 86.7784 870.61 94.4114V100.892C870.61 106.797 869.314 111.694 866.722 115.582C864.273 119.327 861.609 121.991 858.729 123.575C865.065 125.591 870.106 129.12 873.851 134.16C877.595 139.057 879.467 145.538 879.467 153.603V157.491C879.467 161.812 878.963 166.132 877.955 170.453C876.947 174.774 875.003 178.734 872.122 182.335C869.386 185.791 865.426 188.599 860.241 190.76C855.2 192.92 848.575 194 840.366 194H737.753ZM766.269 117.742H827.189C832.229 117.886 835.974 116.662 838.422 114.07C840.87 111.334 842.095 107.949 842.095 103.917V101.756C842.095 98.4439 840.942 95.2755 838.638 92.2511C836.334 89.0827 832.013 87.4985 825.676 87.4985H766.269V117.742ZM766.269 173.261H834.318C839.79 173.261 843.895 171.893 846.631 169.157C849.512 166.421 850.952 162.676 850.952 157.923V154.035C850.952 149.57 849.295 145.97 845.983 143.234C842.671 140.353 837.198 138.913 829.565 138.913H766.269V173.261ZM909.689 194V66.9759H1044.06V87.7146H938.205V117.526H1019V138.913H938.205V173.261H1044.92L1053.56 191.624C1053.56 192.2 1051.62 192.776 1047.73 193.352C1043.84 193.784 1037.15 194 1027.64 194H909.689Z" fill="white"/>
<defs>
<filter id="filter0_d_759_4541" x="32.3359" y="35.3359" width="194.024" height="194.02" filterUnits="userSpaceOnUse" color-interpolation-filters="sRGB">
<feFlood flood-opacity="0" result="BackgroundImageFix"/>
<feColorMatrix in="SourceAlpha" type="matrix" values="0 0 0 0 0 0 0 0 0 0 0 0 0 0 0 0 0 0 127 0" result="hardAlpha"/>
<feOffset dx="26.9474" dy="26.9474"/>
<feGaussianBlur stdDeviation="2.69474"/>
<feComposite in2="hardAlpha" operator="out"/>
<feColorMatrix type="matrix" values="0 0 0 0 0 0 0 0 0 0 0 0 0 0 0 0 0 0 0.25 0"/>
<feBlend mode="normal" in2="BackgroundImageFix" result="effect1_dropShadow_759_4541"/>
<feBlend mode="normal" in="SourceGraphic" in2="effect1_dropShadow_759_4541" result="shape"/>
</filter>
</defs>
</svg>
